

Release info:

General
Format                                   : Matroska
Format version                           : Version 2
File size                                : 531 MiB
Duration                                 : 2h 1mn
Overall bit rate mode                    : Variable
Overall bit rate                         : 611 Kbps
Movie name                               : Inkaar 2013 SCAMRip Hindi

Video
ID                                       : 1
Format                                   : MPEG Video
Format version                           : Version 2
Format profile                           : Main@Main
Format settings, BVOP                    : No
Format settings, Matrix                  : Default
Codec ID                                 : V_MPEG2
Codec ID/Info                            : MPEG 1 or 2 Video
Duration                                 : 2h 1mn
Bit rate mode                            : Variable
Bit rate                                 : 471 Kbps
Maximum bit rate                         : 9 672 Kbps
Width                                    : 352 pixels
Height                                   : 288 pixels
Display aspect ratio                     : 4:3
Frame rate mode                          : Constant
Frame rate                               : 25.000 fps
Standard                                 : PAL
Color space                              : YUV
Chroma subsampling                       : 4:2:0
Bit depth                                : 8 bits
Compression mode                         : Lossy
Bits/(Pixel*Frame)                       : 0.186
Stream size                              : 409 MiB (77%)
Title                                    : Inkaar 2013 SCAMRip Hindi
Language                                 : Hindi
Default                                  : Yes
Forced                                   : No

Audio
ID                                       : 2
Format                                   : MPEG Audio
Format version                           : Version 1
Format profile                           : Layer 3
Mode                                     : Joint stereo
Mode extension                           : MS Stereo
Muxing mode                              : Header stripping
Codec ID                                 : A_MPEG/L3
Codec ID/Hint                            : MP3
Duration                                 : 2h 1mn
Bit rate mode                            : Constant
Bit rate                                 : 128 Kbps
Channel(s)                               : 2 channels
Sampling rate                            : 44.1 KHz
Compression mode                         : Lossy
Stream size                              : 111 MiB (21%)
Title                                    : Inkaar 2013 SCAMRip Hindi
Writing library                          : LAME3.98.2
Language                                 : Hindi
Default                                  : Yes
Forced                                   : No



Source:
credit to original movie ripper (Thanks)

IMDB Info:


At one of India's leading ad agencies, the battle for the top job between Rahul (Arjun Rampal), a venerated advertising CEO, and Maya (Chitrangada Singh) his ambitious
Release Date
18 Jan 2013
Genre
Romance,Crime
Star Cast
Arjun Rampal.... Rahul Verma
Chitrangda Singh.... Maya Luthra
Gaurav Dwivedi
Sandeep Sanchdev
Deepti Naval
Vipin Sharma
Shivani Tanksale
Mohan Kapoor
Rehana Sultan
Story / Writers
Manoj Tyagi





Screen Shot:
 
http://www.shotpix.com/images/31457107811088445637.png 
http://www.shotpix.com/images/06320826975336079772.png 
http://www.shotpix.com/images/37896348669819667366.png 
http://www.shotpix.com/images/17166035919169664072.png 
http://www.shotpix.com/images/68835607124881401473.png 
http://www.shotpix.com/images/50568623415018969003.png